<?xml version="1.0" standalone="no"?>
<!DOCTYPE svg PUBLIC "-//W3C//DTD SVG 20010904//EN"
 "http://www.w3.org/TR/2001/REC-SVG-20010904/DTD/svg10.dtd">
<svg version="1.0" xmlns="http://www.w3.org/2000/svg"
 width="900.000000pt" height="900.000000pt" viewBox="0 0 900.000000 900.000000"
 preserveAspectRatio="xMidYMid meet">
<metadata>
Created by potrace 1.14, written by Peter Selinger 2001-2017
</metadata>
<g transform="translate(0.000000,900.000000) scale(0.100000,-0.100000)"
fill="#000000" stroke="none">
<path d="M26 8407 c4 -12 9 -24 13 -27 8 -6 47 -77 63 -112 7 -16 16 -28 20
-28 4 0 8 -4 8 -9 0 -5 58 -109 128 -233 70 -123 131 -230 135 -238 4 -8 16
-28 27 -45 11 -16 24 -39 29 -50 5 -11 30 -55 55 -98 25 -43 46 -80 46 -84 0
-4 6 -14 14 -22 7 -9 30 -47 51 -86 21 -38 44 -79 51 -90 6 -11 21 -36 31 -55
40 -73 65 -110 76 -111 70 -5 5587 0 5602 5 12 4 34 35 52 74 18 37 51 101 74
142 40 75 100 186 166 310 20 36 52 97 73 135 21 39 53 99 72 135 18 36 36 67
39 70 3 3 16 28 29 55 13 28 28 53 34 57 6 4 7 8 2 8 -5 0 -2 8 6 18 8 9 23
35 33 57 10 22 21 42 24 45 3 3 24 41 46 85 22 44 43 82 48 83 4 2 7 10 7 17
0 11 -592 13 -3530 13 l-3531 0 7 -21z"/>
<path d="M7524 8412 c-6 -10 -30 -53 -54 -97 -24 -44 -55 -102 -70 -130 -15
-27 -44 -80 -64 -117 -20 -38 -52 -98 -73 -135 -20 -38 -53 -100 -73 -139 -53
-99 -64 -118 -73 -125 -5 -3 -8 -9 -7 -13 1 -6 -29 -64 -130 -251 -15 -27 -46
-86 -70 -130 -24 -44 -69 -127 -100 -185 -32 -58 -83 -154 -115 -215 -32 -60
-66 -123 -75 -140 -23 -40 -67 -121 -125 -230 -50 -95 -91 -172 -145 -270 -41
-74 -80 -148 -165 -307 -36 -68 -69 -130 -74 -138 -6 -8 -27 -49 -49 -90 -55
-106 -76 -144 -82 -150 -3 -3 -22 -39 -43 -80 -22 -41 -56 -106 -77 -145 -77
-142 -104 -192 -142 -264 -22 -41 -52 -97 -67 -125 -15 -28 -41 -76 -57 -106
-16 -30 -31 -57 -34 -60 -3 -3 -16 -26 -29 -52 -13 -27 -27 -48 -31 -48 -3 0
-16 17 -27 38 -50 90 -62 110 -94 167 -18 33 -37 62 -41 63 -4 2 -8 12 -8 22
0 10 -4 20 -9 22 -4 2 -20 25 -35 53 l-26 50 -689 0 c-685 0 -689 0 -681 -20
4 -11 28 -54 52 -95 24 -41 47 -82 51 -90 4 -8 16 -28 27 -45 11 -16 26 -43
34 -60 20 -40 60 -109 67 -115 3 -3 12 -18 21 -35 33 -65 53 -100 61 -103 4
-2 7 -8 7 -13 0 -6 25 -52 55 -104 30 -51 55 -98 55 -104 0 -6 5 -11 10 -11 6
0 10 -4 10 -9 0 -10 111 -209 141 -253 11 -15 19 -34 19 -43 0 -8 4 -15 10
-15 5 0 16 -15 24 -32 8 -18 28 -55 44 -83 16 -27 54 -95 86 -150 31 -55 61
-107 66 -115 6 -8 13 -23 16 -32 4 -10 10 -18 15 -18 5 0 9 -5 9 -11 0 -6 18
-41 39 -77 21 -37 54 -94 71 -127 18 -33 41 -72 52 -87 10 -14 18 -28 18 -31
0 -2 23 -44 51 -93 51 -88 69 -120 109 -189 45 -80 64 -112 82 -145 11 -19 30
-53 44 -75 13 -22 31 -56 41 -75 9 -19 20 -37 23 -40 4 -3 9 -10 11 -15 7 -19
122 -220 128 -225 4 -3 12 -17 18 -32 14 -32 28 -36 37 -10 3 9 18 37 32 62
62 107 78 135 75 139 -1 2 1 7 6 10 11 8 83 130 83 140 0 5 7 14 15 21 9 7 14
15 11 17 -2 3 18 40 45 84 27 44 49 82 49 85 0 2 10 21 23 42 13 20 37 62 54
92 36 65 111 197 128 225 7 11 13 23 14 27 1 4 24 44 51 89 28 44 50 82 50 83
0 2 32 59 71 127 39 68 83 144 97 168 14 25 38 67 53 93 16 27 29 53 29 58 0
6 5 10 10 10 6 0 10 5 10 11 0 6 16 38 36 72 20 34 48 82 62 107 28 51 168
297 182 320 24 40 95 166 99 175 2 6 7 12 10 15 3 3 15 23 26 45 11 22 26 46
32 53 7 7 13 18 13 23 0 6 16 35 35 65 19 30 35 57 35 59 0 3 10 22 23 43 13
20 37 62 54 92 16 30 56 100 88 155 32 55 69 120 83 145 14 25 34 59 44 75 10
17 21 37 25 45 4 8 19 35 33 61 15 25 38 65 52 90 27 48 45 79 103 179 21 36
49 85 63 110 56 101 57 102 316 555 120 209 232 405 248 435 17 30 34 60 38
65 5 6 23 37 40 70 18 33 39 67 46 76 8 8 14 19 14 23 0 4 17 38 39 74 21 37
48 83 58 102 11 19 32 55 47 80 15 25 29 53 33 63 3 9 9 17 14 17 5 0 9 5 9
11 0 5 26 56 59 112 32 56 68 118 78 137 117 206 295 518 303 530 16 26 94
164 107 190 7 14 20 35 28 47 l16 21 -728 0 c-670 0 -730 -1 -739 -16z"/>
<path d="M1033 6702 c-13 -2 -23 -5 -23 -8 0 -6 24 -48 31 -54 3 -3 13 -21 22
-40 10 -19 27 -48 37 -65 11 -16 25 -41 30 -55 6 -14 22 -41 34 -60 25 -37
203 -350 271 -475 23 -41 46 -80 53 -87 7 -7 12 -15 12 -19 0 -7 12 -29 94
-169 15 -25 34 -61 44 -80 9 -19 20 -36 25 -38 4 -2 7 -8 7 -12 0 -5 17 -37
37 -72 56 -94 82 -140 96 -168 6 -14 14 -27 18 -30 3 -3 8 -12 12 -20 3 -8 20
-37 37 -65 16 -27 33 -57 37 -65 4 -8 20 -37 36 -65 17 -27 43 -75 60 -105 16
-30 37 -63 45 -72 8 -10 12 -18 8 -18 -4 0 2 -13 13 -29 12 -16 21 -34 21 -40
0 -6 5 -11 10 -11 6 0 10 -4 10 -8 0 -5 77 -143 171 -308 94 -164 184 -321
199 -349 15 -27 51 -90 79 -138 28 -49 51 -91 51 -94 0 -3 8 -17 19 -31 10
-15 32 -52 48 -82 38 -69 70 -126 94 -165 11 -16 22 -37 26 -45 4 -8 26 -48
50 -88 24 -41 43 -75 43 -77 0 -2 18 -33 40 -69 22 -36 40 -68 40 -72 0 -3 8
-18 18 -32 11 -15 32 -52 49 -82 53 -96 86 -154 110 -192 12 -21 23 -42 23
-48 0 -5 4 -10 10 -10 5 0 9 -3 8 -7 -2 -7 41 -86 113 -206 16 -26 29 -49 29
-52 0 -3 18 -34 40 -70 22 -36 40 -67 40 -69 0 -3 20 -39 45 -80 25 -42 45
-79 45 -81 0 -3 11 -22 23 -43 21 -33 53 -87 94 -162 8 -14 27 -47 44 -75 16
-27 34 -62 40 -78 6 -15 15 -27 20 -27 5 0 9 -4 9 -9 0 -5 40 -79 88 -164 49
-84 92 -160 96 -168 4 -8 12 -23 19 -34 43 -71 168 -292 223 -392 21 -37 41
-69 46 -71 4 -2 8 -8 8 -14 0 -5 18 -40 39 -76 82 -140 92 -157 98 -174 3 -10
9 -18 14 -18 5 0 9 -5 9 -11 0 -6 21 -48 48 -93 26 -44 53 -93 61 -109 16 -30
31 -36 31 -12 0 8 4 15 9 15 5 0 12 8 15 18 9 23 38 76 45 82 4 3 12 16 18 30
7 14 28 52 47 85 20 33 39 67 43 75 4 8 19 35 33 61 40 67 80 139 104 184 12
22 23 42 26 45 3 3 10 14 16 25 26 48 66 120 144 255 45 80 93 163 105 185 13
22 41 72 63 110 l40 70 -33 60 c-18 33 -46 83 -64 111 -17 28 -31 54 -31 57 0
3 -31 58 -69 121 -38 63 -66 117 -63 120 3 4 0 6 -6 6 -7 0 -12 4 -12 10 0 5
-13 31 -29 58 -15 26 -39 68 -53 93 -31 54 -30 53 -219 386 -84 147 -161 280
-171 296 -11 15 -16 27 -12 27 4 0 0 8 -8 18 -8 9 -26 37 -39 62 -13 25 -26
47 -29 50 -5 5 -11 15 -55 96 -15 27 -42 76 -61 109 -20 33 -40 72 -47 88 -6
15 -15 27 -19 27 -4 0 -8 4 -8 10 0 5 -27 55 -60 111 -33 55 -60 103 -60 105
0 2 -18 34 -40 70 -22 36 -40 69 -40 73 0 4 -13 27 -28 52 -16 24 -55 91 -88
149 -32 57 -64 114 -71 125 -7 11 -15 27 -19 35 -4 8 -29 51 -54 95 -26 44
-60 105 -76 135 -16 30 -33 60 -37 65 -8 10 -298 520 -311 547 -3 7 -16 29
-27 48 -68 114 -149 260 -149 269 0 8 354 11 1200 11 l1200 0 23 48 c12 26 24
49 27 52 3 3 17 28 31 55 28 54 102 194 154 290 57 105 138 259 149 282 6 13
14 23 19 23 4 0 7 7 7 15 0 9 10 32 23 53 12 20 29 51 37 67 8 17 17 32 20 35
3 3 16 28 30 55 14 28 42 81 63 119 20 38 35 71 32 74 -5 6 -5074 9 -5112 4z"/>
</g>
</svg>
